HIERARCHY
ROOT Hips
{
	OFFSET 0.00000 0.00000 0.00000
	CHANNELS 6 Xposition Yposition Zposition Yrotation Zrotation Xrotation 
	JOINT Lumbar
	{
		OFFSET 0 0 0
		CHANNELS 3 Zrotation Xrotation Yrotation
		JOINT Neck
		{
			OFFSET 0.00 0.2701 0.00
			CHANNELS 3 Zrotation Xrotation Yrotation
			End Site
			{
				OFFSET 0.00 0.1379 0.00
			}
		}
		JOINT RightShoulder
		{
			OFFSET 0.0119 0.2289 0.1181
			CHANNELS 3 Zrotation Xrotation Yrotation
			JOINT RightElbow
			{
				OFFSET 0.00 -0.1475 0.00
				CHANNELS 2 Zrotation Yrotation
				JOINT RightWrist
				{
					OFFSET 0.00 -0.1605 0.00
					CHANNELS 2 Zrotation Xrotation
					End Site
					{
						OFFSET 0.0040 -0.1068 0.0006
					}
				}
			}
		}
		JOINT LeftShoulder
		{
			OFFSET 0.0119 0.2289 -0.1181
			CHANNELS 3 Zrotation Xrotation Yrotation
			JOINT LeftElbow
			{
				OFFSET 0.00 -0.1475 0.00
				CHANNELS 2 Zrotation Yrotation
				JOINT LeftWrist
				{
					OFFSET 0.00 -0.1605 0.00
					CHANNELS 2 Zrotation Xrotation
					End Site
					{
						OFFSET 0.0040 -0.1068 -0.0006
					}
				}
			}
		}
	}
	JOINT RightHip
	{
		OFFSET 0.0316 -0.0424 0.0458
		CHANNELS 3 Zrotation Xrotation Yrotation
		JOINT RightKnee
		{
			OFFSET 0.00 -0.2438 0.00
			CHANNELS 1 Zrotation
			JOINT RightAnkle
			{
				OFFSET 0.00 -0.2449 0.00
				CHANNELS 3 Zrotation Xrotation Yrotation
				End Site
				{
					OFFSET 0.1237 -0.0542 0.0051
				}
			}
		}
	}
	JOINT LeftHip
	{
		OFFSET 0.0316 -0.0424 -0.0458
		CHANNELS 3 Zrotation Xrotation Yrotation
		JOINT LeftKnee
		{
			OFFSET 0.00 -0.2438 0.00
			CHANNELS 1 Zrotation
			JOINT LeftAnkle
			{
				OFFSET 0.00 -0.2449 0.00
				CHANNELS 3 Zrotation Xrotation Yrotation
				End Site
				{
					OFFSET 0.1237 -0.0542 -0.0051
				}
			}
		}
	}
}
MOTION
Frames: 22
Frame Time: 0.02
0.01434 -0.00838 -0.22158 -172.18137 -23.84305 1.6054 34.43789 1.48229 -12.13187 -8.67569 -7.53611 -0.83078 21.85483 -24.41712 32.3075 112.03415 122.17626 22.56957 3.12094 146.6149 6.66813 -64.05412 11.49775 -78.43877 0.87023 6.75855 24.56834 5.78455 -11.62606 -18.00376 -6.72892 -4.10357 -2.78467 42.75531 16.51874 4.34306 -28.96767 -11.04654 3.25148 2.54771
0.01436 -0.00836 -0.22238 -172.96549 -23.90206 1.77036 34.42385 1.58641 -11.79103 -8.87334 -6.98736 -0.83078 20.32948 -24.32431 31.22721 112.22232 122.22672 22.82962 3.09694 147.69702 9.56969 -62.96372 10.68738 -79.47139 -0.17369 5.89894 24.55106 5.68125 -11.40162 -17.87989 -6.72176 -4.04313 -2.75227 42.89341 16.34036 4.11905 -28.99159 -10.94823 3.24727 2.54149
0.01427 -0.00828 -0.22284 -173.63142 -23.97335 1.97873 34.42985 1.72908 -11.4979 -9.04281 -6.34929 -0.83078 18.66744 -24.27115 30.07823 112.4248 122.40846 23.26926 3.06924 148.05299 13.36567 -61.58734 10.48017 -80.01796 -0.34401 4.78058 24.54829 5.51012 -11.16477 -17.76546 -6.72372 -3.9912 -2.72667 42.9848 15.99614 3.82502 -28.75892 -10.81754 3.23952 2.53167
0.01421 -0.00824 -0.22343 -174.33172 -24.03526 2.16386 34.42629 1.85312 -11.1977 -9.2275 -5.74913 -0.83078 17.06517 -24.21017 28.96569 112.62654 122.52068 23.62362 3.04013 148.67772 16.77183 -60.41274 10.02531 -80.90779 -0.88418 3.77122 24.53509 5.37249 -10.93743 -17.65061 -6.72163 -3.93769 -2.69917 43.09216 15.73017 3.59053 -28.62883 -10.70217 3.23382 2.52372
0.01422 -0.00817 -0.22409 -175.12272 -24.11748 2.36516 34.42658 1.98277 -10.83011 -9.39868 -5.14886 -0.83078 15.46691 -24.10817 27.82715 112.8033 122.65691 23.98263 3.02215 149.56958 20.13763 -58.93132 9.45497 -81.34602 -1.56633 2.78359 24.54199 5.22128 -10.69124 -17.51935 -6.71928 -3.87449 -2.66657 43.22528 15.45139 3.24308 -28.55898 -10.58255 3.22653 2.51491
0.01406 -0.00814 -0.22453 -175.69171 -24.15878 2.54208 34.42308 2.10956 -10.61638 -9.59262 -4.53284 -0.83078 13.83164 -24.10204 26.72975 113.03555 122.77051 24.37493 2.97983 149.71509 23.7809 -58.01666 9.27314 -82.5768 -1.72683 1.70219 24.50921 5.08338 -10.48304 -17.42489 -6.71957 -3.83355 -2.64625 43.29256 15.15951 3.10756 -28.30375 -10.46518 3.22157 2.507
0.01344 -0.00824 -0.2245 -175.69487 -24.08264 2.64735 34.40132 2.21844 -10.81617 -9.85532 -3.88599 -0.83078 12.10968 -24.32788 25.74099 113.41947 122.92863 24.86599 2.88478 148.15046 28.06107 -58.80498 9.98426 -86.20539 -0.76043 0.33318 24.36029 4.99535 -10.3745 -17.42559 -6.72509 -3.85161 -2.65796 43.18626 14.88005 3.63942 -27.58188 -10.35667 3.22418 2.50224
0.01265 -0.00838 -0.22425 -175.47389 -23.96452 2.72544 34.37508 2.32291 -11.16979 -10.14206 -3.2304 -0.83078 10.35988 -24.65194 24.80044 113.85826 123.0437 25.37944 2.76395 145.82773 32.56756 -60.15962 11.07697 -90.62013 0.72026 -1.104 24.17093 4.92379 -10.30669 -17.46373 -6.7329 -3.89185 -2.68184 43.01545 14.59191 4.37597 -26.68537 -10.2527 3.22914 2.49849
0.01193 -0.00851 -0.22409 -175.34288 -23.86594 2.81159 34.35277 2.42983 -11.45372 -10.41947 -2.58525 -0.83078 8.63424 -24.94636 23.85228 114.27107 123.08393 25.84852 2.64555 143.74076 36.91152 -61.21533 12.00928 -94.61189 2.03579 -2.4478 24.00147 4.84747 -10.22557 -17.48745 -6.73953 -3.92221 -2.7003 42.87561 14.30255 4.97534 -25.87967 -10.15024 3.23287 2.49441
0.01122 -0.00862 -0.22398 -175.25941 -23.76595 2.91685 34.32412 2.53693 -11.73875 -10.69101 -1.90606 -0.83078 6.85212 -25.18148 22.84094 114.68972 123.50221 26.45817 2.5633 142.09095 41.54835 -62.44745 12.88552 -98.87889 3.09924 -4.06101 23.82612 4.75798 -10.12092 -17.5006 -6.7471 -3.95209 -2.71854 42.72687 14.02879 5.75514 -25.01596 -10.03151 3.2373 2.48975
0.01045 -0.00877 -0.22371 -175.02358 -23.65869 2.97594 34.3062 2.64125 -12.05687 -10.97848 -1.30121 -0.83078 5.18663 -25.5597 21.97399 115.10786 123.15204 26.79034 2.40331 139.35572 45.60552 -63.43646 13.98908 -102.74816 4.78946 -5.12985 23.65331 4.69979 -10.07652 -17.54444 -6.75312 -3.98807 -2.74002 42.58241 13.72313 6.21307 -24.23594 -9.94823 3.24068 2.48648
0.00954 -0.00902 -0.22305 -174.43605 -23.54241 2.90799 34.32856 2.74593 -12.43326 -11.3248 -0.86802 -0.83078 3.81939 -26.33579 21.4916 115.52124 120.42345 26.24289 2.00392 133.86396 48.09637 -63.74277 15.37965 -105.47335 8.15678 -4.64248 23.49703 4.73261 -10.17635 -17.66465 -6.75447 -4.036 -2.76774 42.46215 13.32799 5.69397 -23.72268 -9.96133 3.24246 2.48796
0.00857 -0.00931 -0.22223 -173.70098 -23.42033 2.79532 34.36002 2.84645 -12.83638 -11.68261 -0.51728 -0.83078 2.57761 -27.24698 21.15425 115.93021 116.97011 25.43306 1.5329 127.31042 49.97174 -63.76694 17.02379 -107.74543 12.117 -3.6102 23.34499 4.79525 -10.33753 -17.81418 -6.75417 -4.08921 -2.79825 42.34966 12.90252 4.85095 -23.3025 -10.01015 3.24279 2.49063
0.00763 -0.00957 -0.22147 -173.02458 -23.29998 2.70709 34.38088 2.94416 -13.22434 -12.02165 -0.15252 -0.83078 1.29827 -28.07896 20.7516 116.33458 114.02586 24.81539 1.11522 121.19644 52.06927 -63.83286 18.71759 -110.13188 15.75696 -2.85014 23.19082 4.83871 -10.47901 -17.9498 -6.75443 -4.13958 -2.82724 42.2356 12.49408 4.1822 -22.84538 -10.04312 3.24253 2.49202
0.00667 -0.00987 -0.22077 -172.37516 -23.18086 2.60101 34.42872 3.06172 -13.63124 -12.4186 0.3123 -0.83078 -0.06719 -28.99086 20.34546 116.76894 110.33033 23.89758 0.60936 115.19161 54.43051 -64.26559 19.75022 -112.93445 19.63932 -1.9896 23.03491 4.90582 -10.58835 -18.08946 -6.75533 -4.19244 -2.85762 42.10947 12.07157 3.40806 -22.35849 -10.07482 3.2475 2.49653
0.00575 -0.0101 -0.2199 -171.63809 -23.05979 2.52128 34.42278 3.13681 -14.00197 -12.69748 0.54814 -0.83078 -1.21943 -29.7655 19.9836 117.13881 108.01686 23.53375 0.2699 108.77417 56.07788 -63.88231 22.18844 -114.74942 23.13904 -1.20708 22.88568 4.93134 -10.77742 -18.22687 -6.75476 -4.24126 -2.88572 42.0131 11.67125 2.77161 -21.95911 -10.11733 3.24135 2.49488
0.00492 -0.01014 -0.21863 -170.69233 -22.92272 2.53014 34.26453 3.09734 -14.2735 -12.64664 0.17988 -0.83078 -1.8442 -30.13996 19.68136 117.33307 109.79333 24.83573 0.41282 100.99618 56.03391 -61.11945 28.66416 -113.96513 25.53109 -0.77967 22.74098 4.8278 -11.18141 -18.35338 -6.74813 -4.27577 -2.90573 41.98028 11.34076 2.61311 -21.77051 -10.18317 3.20385 2.47534
0.00413 -0.0101 -0.2172 -169.66637 -22.7865 2.56625 34.05227 3.01504 -14.50493 -12.47687 -0.41678 -0.83078 -2.25275 -30.36803 19.42357 117.46166 112.96736 26.68987 0.72494 92.93466 55.26823 -57.57803 36.49664 -112.1921 27.49551 -0.44746 22.60545 4.68256 -11.66093 -18.47592 -6.74046 -4.3062 -2.92345 41.98026 11.03381 2.60001 -21.66907 -10.2582 3.15548 2.44972
0.00333 -0.01009 -0.21585 -168.67845 -22.65775 2.58688 33.86565 2.95114 -14.74999 -12.36167 -0.91514 -0.83078 -2.74018 -30.65587 19.16296 117.6196 115.43935 28.24499 0.95601 85.32059 54.74583 -54.51928 43.57089 -110.86096 29.59371 -0.06787 22.4744 4.56094 -12.09992 -18.59854 -6.73489 -4.33971 -2.94296 41.97695 10.71503 2.50699 -21.53407 -10.32758 3.11259 2.42719
0.00251 -0.0101 -0.21448 -167.67332 -22.49487 2.61919 33.67427 2.89125 -15.01809 -12.24367 -1.39627 -0.83078 -3.30545 -30.98051 18.83386 117.78106 118.17087 29.99746 1.20151 76.3184 54.55617 -50.91013 51.27819 -109.55983 31.97619 0.31095 22.30701 4.42081 -12.5695 -18.72972 -6.72259 -4.36857 -2.95962 41.92622 10.39871 2.46062 -21.37712 -10.40454 3.06695 2.40308
0.00174 -0.01006 -0.2131 -166.69346 -22.40428 2.63398 33.48041 2.8133 -15.22502 -12.10439 -1.96257 -0.83078 -3.65844 -31.1876 18.65631 117.9177 120.70021 31.46906 1.4588 70.16095 53.51453 -48.26223 57.9532 -107.94979 33.64773 0.66465 22.21736 4.30872 -12.98969 -18.84147 -6.72383 -4.40568 -2.98139 41.98022 10.08482 2.35656 -21.28483 -10.46728 3.02502 2.38109
0.00109 -0.00992 -0.21172 -165.74822 -22.50544 2.59632 33.28827 2.69259 -15.30071 -11.92415 -2.74045 -0.83078 -3.48316 -31.14184 18.88323 118.01836 122.3586 32.06936 1.70104 71.87406 50.26483 -48.49251 61.72559 -105.88599 33.53751 0.94452 22.34089 4.28549 -13.27946 -18.90257 -6.76484 -4.46979 -3.01975 42.33034 9.75824 2.05302 -21.35477 -10.48944 2.99131 2.36394
